<svg width="155" height="24" viewBox="0 0 155 24" fill="none" xmlns="http://www.w3.org/2000/svg">
<path d="M145.404 6L148.078 10.6726H148.193L150.896 6H154.857L150.438 13.3953L155 20.7906H150.938L148.193 16.0674H148.078L145.332 20.7906H141.299L145.84 13.3953L141.414 6H145.404Z" fill="black"/>
<path d="M132.953 20.9494C132.143 20.9494 131.406 20.7376 130.743 20.3139C130.081 19.8902 129.552 19.2547 129.156 18.4073C128.76 17.5599 128.562 16.5079 128.562 15.2513C128.562 13.9466 128.767 12.8729 129.177 12.0303C129.587 11.1878 130.124 10.5643 130.786 10.1598C131.454 9.75542 132.171 9.5532 132.939 9.5532C133.515 9.5532 134.009 9.65431 134.419 9.85652C134.829 10.0539 135.167 10.3091 135.434 10.6221C135.701 10.935 135.904 11.26 136.042 11.597H136.113V6H139.61V20.7906H136.149V18.9923H136.042C135.894 19.3341 135.684 19.6543 135.413 19.9528C135.141 20.2513 134.8 20.4921 134.39 20.675C133.985 20.858 133.506 20.9494 132.953 20.9494ZM134.169 18.1979C134.593 18.1979 134.955 18.0775 135.255 17.8368C135.556 17.5912 135.787 17.247 135.949 16.804C136.111 16.3611 136.192 15.8411 136.192 15.2441C136.192 14.6375 136.111 14.1151 135.949 13.6769C135.792 13.2388 135.561 12.9018 135.255 12.6659C134.955 12.4299 134.593 12.312 134.169 12.312C133.735 12.312 133.368 12.4324 133.067 12.6731C132.767 12.9138 132.538 13.2533 132.381 13.6914C132.228 14.1295 132.152 14.6471 132.152 15.2441C132.152 15.8411 132.231 16.3611 132.388 16.804C132.545 17.247 132.772 17.5912 133.067 17.8368C133.368 18.0775 133.735 18.1979 134.169 18.1979Z" fill="black"/>
<path d="M121.036 20.7906V9.69764H124.433V11.7198H124.547C124.748 10.988 125.074 10.4439 125.527 10.0876C125.98 9.72653 126.507 9.54598 127.107 9.54598C127.269 9.54598 127.436 9.55802 127.608 9.58209C127.779 9.60135 127.939 9.63264 128.087 9.67597V12.7453C127.92 12.6875 127.701 12.6418 127.429 12.6081C127.162 12.5744 126.924 12.5575 126.714 12.5575C126.299 12.5575 125.925 12.6514 125.591 12.8392C125.262 13.0221 125.003 13.2797 124.812 13.6119C124.626 13.9393 124.533 14.3245 124.533 14.7675V20.7906H121.036Z" fill="black"/>
<path d="M112.334 20.9783C111.633 20.9783 111.011 20.8604 110.468 20.6245C109.929 20.3837 109.503 20.0226 109.188 19.5412C108.878 19.0549 108.723 18.4458 108.723 17.714C108.723 17.0977 108.83 16.5778 109.045 16.1541C109.259 15.7304 109.555 15.3861 109.932 15.1213C110.308 14.8565 110.742 14.6567 111.233 14.5219C111.724 14.3823 112.248 14.2884 112.806 14.2402C113.431 14.1825 113.934 14.1223 114.315 14.0597C114.696 13.9923 114.973 13.8984 115.144 13.778C115.321 13.6529 115.409 13.4771 115.409 13.2508V13.2147C115.409 12.844 115.283 12.5575 115.03 12.3553C114.777 12.1531 114.436 12.052 114.007 12.052C113.545 12.052 113.173 12.1531 112.892 12.3553C112.611 12.5575 112.432 12.8368 112.356 13.1931L109.131 13.0775C109.226 12.4035 109.472 11.8016 109.867 11.272C110.268 10.7376 110.816 10.3187 111.512 10.0154C112.213 9.70727 113.054 9.5532 114.036 9.5532C114.737 9.5532 115.383 9.63746 115.974 9.80597C116.565 9.96967 117.08 10.2104 117.518 10.5282C117.957 10.8411 118.295 11.2263 118.534 11.6837C118.777 12.1411 118.898 12.6635 118.898 13.2508V20.7906H115.609V19.2451H115.523C115.328 19.6206 115.078 19.9384 114.773 20.1984C114.472 20.4584 114.117 20.6533 113.707 20.7833C113.302 20.9133 112.844 20.9783 112.334 20.9783ZM113.414 18.6673C113.79 18.6673 114.129 18.5903 114.429 18.4362C114.734 18.2821 114.977 18.0703 115.159 17.8007C115.34 17.5262 115.43 17.2085 115.43 16.8474V15.793C115.33 15.8459 115.209 15.8941 115.066 15.9374C114.927 15.9807 114.775 16.0217 114.608 16.0602C114.441 16.0987 114.27 16.1324 114.093 16.1613C113.917 16.1902 113.748 16.2167 113.586 16.2407C113.257 16.2937 112.975 16.3755 112.742 16.4863C112.513 16.597 112.337 16.7415 112.213 16.9196C112.093 17.0929 112.034 17.3 112.034 17.5407C112.034 17.9066 112.163 18.1858 112.42 18.3784C112.682 18.571 113.013 18.6673 113.414 18.6673Z" fill="black"/>
<path d="M101.898 21C100.744 21 99.7526 20.7617 98.9232 20.285C98.0985 19.8036 97.4621 19.1343 97.014 18.2773C96.5706 17.4155 96.349 16.4165 96.349 15.2802C96.349 14.1391 96.5706 13.1401 97.014 12.2831C97.4621 11.4213 98.0985 10.752 98.9232 10.2754C99.7526 9.79393 100.744 9.5532 101.898 9.5532C103.051 9.5532 104.041 9.79393 104.865 10.2754C105.695 10.752 106.331 11.4213 106.775 12.2831C107.223 13.1401 107.447 14.1391 107.447 15.2802C107.447 16.4165 107.223 17.4155 106.775 18.2773C106.331 19.1343 105.695 19.8036 104.865 20.285C104.041 20.7617 103.051 21 101.898 21ZM101.919 18.3351C102.339 18.3351 102.694 18.2051 102.985 17.9451C103.276 17.6851 103.497 17.324 103.65 16.8618C103.807 16.3996 103.886 15.8652 103.886 15.2585C103.886 14.6423 103.807 14.103 103.65 13.6408C103.497 13.1786 103.276 12.8175 102.985 12.5575C102.694 12.2975 102.339 12.1675 101.919 12.1675C101.485 12.1675 101.118 12.2975 100.818 12.5575C100.523 12.8175 100.296 13.1786 100.139 13.6408C99.9862 14.103 99.91 14.6423 99.91 15.2585C99.91 15.8652 99.9862 16.3996 100.139 16.8618C100.296 17.324 100.523 17.6851 100.818 17.9451C101.118 18.2051 101.485 18.3351 101.919 18.3351Z" fill="black"/>
<path d="M83.8909 20.7906V6H87.3875V11.597H87.459C87.602 11.26 87.8046 10.935 88.0668 10.6221C88.3338 10.3091 88.6722 10.0539 89.0822 9.85652C89.4969 9.65431 89.9927 9.5532 90.5695 9.5532C91.3322 9.5532 92.0449 9.75542 92.7075 10.1598C93.3749 10.5643 93.9136 11.1878 94.3236 12.0303C94.7336 12.8729 94.9385 13.9466 94.9385 15.2513C94.9385 16.5079 94.7407 17.5599 94.345 18.4073C93.9541 19.2547 93.425 19.8902 92.7576 20.3139C92.095 20.7376 91.3585 20.9494 90.5481 20.9494C89.9951 20.9494 89.516 20.858 89.1108 20.675C88.7056 20.4921 88.3647 20.2513 88.0883 19.9528C87.8165 19.6543 87.6068 19.3341 87.459 18.9923H87.3517V20.7906H83.8909ZM87.316 15.2441C87.316 15.8411 87.3946 16.3611 87.552 16.804C87.714 17.247 87.9452 17.5912 88.2456 17.8368C88.5507 18.0775 88.9153 18.1979 89.3396 18.1979C89.7686 18.1979 90.1333 18.0775 90.4337 17.8368C90.734 17.5912 90.9604 17.247 91.113 16.804C91.2703 16.3611 91.3489 15.8411 91.3489 15.2441C91.3489 14.6471 91.2703 14.1295 91.113 13.6914C90.9604 13.2533 90.734 12.9138 90.4337 12.6731C90.1381 12.4324 89.7734 12.312 89.3396 12.312C88.9106 12.312 88.5459 12.4299 88.2456 12.6659C87.9452 12.9018 87.714 13.2388 87.552 13.6769C87.3946 14.1151 87.316 14.6375 87.316 15.2441Z" fill="black"/>
<path d="M74.5861 14.4641V20.7906H71.0895V6H74.4717V11.7342H74.5933C74.8412 11.0506 75.2464 10.5161 75.8089 10.131C76.3762 9.74579 77.0698 9.5532 77.8897 9.5532C78.662 9.5532 79.3341 9.72653 79.9062 10.0732C80.4782 10.415 80.9216 10.8989 81.2362 11.5248C81.5556 12.1507 81.7129 12.8825 81.7081 13.7203V20.7906H78.2115V14.4136C78.2162 13.7973 78.0637 13.3158 77.7538 12.9692C77.444 12.6225 77.0078 12.4492 76.4453 12.4492C76.0782 12.4492 75.7541 12.5311 75.4728 12.6948C75.1963 12.8536 74.9794 13.0823 74.8221 13.3808C74.6696 13.6793 74.5909 14.0404 74.5861 14.4641Z" fill="black"/>
<path d="M69.0962 13.0847L65.8856 13.1714C65.8522 12.9403 65.7616 12.7357 65.6139 12.5575C65.4661 12.3746 65.273 12.2325 65.0347 12.1314C64.8011 12.0255 64.5294 11.9726 64.2195 11.9726C63.8143 11.9726 63.4687 12.0544 63.1827 12.2181C62.9014 12.3818 62.7632 12.6033 62.7679 12.8825C62.7632 13.0992 62.849 13.287 63.0254 13.4458C63.2065 13.6047 63.5283 13.7323 63.9907 13.8286L66.1073 14.233C67.2037 14.4449 68.0189 14.7963 68.5528 15.2874C69.0914 15.7785 69.3632 16.4285 69.3679 17.2374C69.3632 17.9981 69.1391 18.6601 68.6958 19.2234C68.2572 19.7867 67.6566 20.2248 66.8938 20.5378C66.1311 20.8459 65.2587 21 64.2767 21C62.7083 21 61.4713 20.675 60.5655 20.025C59.6646 19.3702 59.1497 18.494 59.021 17.3962L62.4748 17.3096C62.551 17.714 62.7489 18.0221 63.0683 18.234C63.3876 18.4458 63.7952 18.5518 64.291 18.5518C64.7391 18.5518 65.1038 18.4675 65.385 18.299C65.6663 18.1305 65.8093 17.9066 65.8141 17.6273C65.8093 17.377 65.6997 17.1772 65.4852 17.0279C65.2706 16.8739 64.9346 16.7535 64.4769 16.6668L62.5606 16.2985C61.4594 16.0963 60.6394 15.7232 60.1008 15.1791C59.5621 14.6302 59.2951 13.9321 59.2999 13.0847C59.2951 12.3433 59.4906 11.7102 59.8862 11.1854C60.2819 10.6558 60.8444 10.2513 61.5738 9.97207C62.3031 9.69283 63.1636 9.5532 64.1551 9.5532C65.6425 9.5532 66.8152 9.86856 67.6732 10.4993C68.5313 11.1252 69.0056 11.987 69.0962 13.0847Z" fill="black"/>
<path d="M50.805 20.9783C50.1042 20.9783 49.4821 20.8604 48.9387 20.6245C48.4 20.3837 47.9734 20.0226 47.6587 19.5412C47.3489 19.0549 47.1939 18.4458 47.1939 17.714C47.1939 17.0977 47.3012 16.5778 47.5157 16.1541C47.7302 15.7304 48.0258 15.3861 48.4024 15.1213C48.779 14.8565 49.2128 14.6567 49.7038 14.5219C50.1948 14.3823 50.7192 14.2884 51.2769 14.2402C51.9014 14.1825 52.4043 14.1223 52.7857 14.0597C53.1671 13.9923 53.4436 13.8984 53.6152 13.778C53.7916 13.6529 53.8798 13.4771 53.8798 13.2508V13.2147C53.8798 12.844 53.7534 12.5575 53.5008 12.3553C53.2481 12.1531 52.9073 12.052 52.4782 12.052C52.0158 12.052 51.644 12.1531 51.3627 12.3553C51.0815 12.5575 50.9027 12.8368 50.8264 13.1931L47.6015 13.0775C47.6969 12.4035 47.9424 11.8016 48.338 11.272C48.7385 10.7376 49.2867 10.3187 49.9827 10.0154C50.6834 9.70727 51.5248 9.5532 52.5068 9.5532C53.2076 9.5532 53.8535 9.63746 54.4447 9.80597C55.0358 9.96967 55.5506 10.2104 55.9892 10.5282C56.4278 10.8411 56.7662 11.2263 57.0046 11.6837C57.2477 12.1411 57.3693 12.6635 57.3693 13.2508V20.7906H54.08V19.2451H53.9942C53.7987 19.6206 53.5484 19.9384 53.2434 20.1984C52.943 20.4584 52.5879 20.6533 52.1779 20.7833C51.7727 20.9133 51.3151 20.9783 50.805 20.9783ZM51.8847 18.6673C52.2613 18.6673 52.5998 18.5903 52.9001 18.4362C53.2052 18.2821 53.4483 18.0703 53.6295 17.8007C53.8106 17.5262 53.9012 17.2085 53.9012 16.8474V15.793C53.8011 15.8459 53.6795 15.8941 53.5365 15.9374C53.3983 15.9807 53.2457 16.0217 53.0789 16.0602C52.912 16.0987 52.7404 16.1324 52.564 16.1613C52.3877 16.1902 52.2184 16.2167 52.0564 16.2407C51.7274 16.2937 51.4462 16.3755 51.2126 16.4863C50.9838 16.597 50.8074 16.7415 50.6834 16.9196C50.5643 17.0929 50.5047 17.3 50.5047 17.5407C50.5047 17.9066 50.6334 18.1858 50.8908 18.3784C51.153 18.571 51.4843 18.6673 51.8847 18.6673Z" fill="black"/>
<path d="M38.413 20.7906H33V6H38.4059C39.8979 6 41.1827 6.2961 42.26 6.8883C43.3422 7.47569 44.1764 8.32306 44.7627 9.43043C45.3491 10.533 45.6423 11.8522 45.6423 13.3881C45.6423 14.9287 45.3491 16.2528 44.7627 17.3601C44.1812 18.4675 43.3493 19.3173 42.2672 19.9095C41.1851 20.4969 39.9003 20.7906 38.413 20.7906ZM36.5395 17.7429H38.2771C39.0971 17.7429 39.7907 17.6033 40.358 17.324C40.93 17.04 41.3614 16.5802 41.6522 15.9446C41.9478 15.3043 42.0956 14.4521 42.0956 13.3881C42.0956 12.324 41.9478 11.4766 41.6522 10.8459C41.3567 10.2104 40.9205 9.75301 40.3437 9.47376C39.7716 9.1897 39.0661 9.04766 38.2271 9.04766H36.5395V17.7429Z" fill="black"/>
<path d="M0.500352 13.6029C0.233033 13.2097 0.0667882 12.7565 0.0163313 12.2837C-0.0341256 11.8109 0.0327618 11.3329 0.211073 10.8921C1.02036 9.2411 2.37615 7.92115 4.04819 7.15635C5.25876 6.55437 6.57002 6.18096 7.91611 6.0549C7.3296 6.77663 6.74243 7.54666 6.1546 8.36515C4.95825 10.1768 3.9342 12.0964 3.09585 14.099L2.73499 14.9082C2.2887 14.8712 1.85634 14.7348 1.46965 14.509C1.08296 14.2831 0.751754 13.9735 0.500352 13.6029ZM1.87516 17.8019C1.01148 18.9944 0.391608 20.3457 0.0510548 21.7782C-0.161258 22.709 0.421185 23.6357 1.35204 23.848C1.60536 23.9058 1.86845 23.9058 2.12174 23.8478C3.55207 23.5068 4.90121 22.8873 6.0921 22.0247C7.2582 20.8592 7.25867 18.969 6.09308 17.8029C4.92754 16.6368 3.03733 16.6363 1.87123 17.8019H1.87516ZM9.76513 20.7642L8.95001 21.1261V21.4184C8.95098 21.765 9.02032 22.1081 9.15405 22.4279C9.28778 22.7478 9.48328 23.0381 9.72936 23.2823C10.2021 23.742 10.8354 23.9995 11.4949 24C13.8379 23.9662 15.7376 21.8329 16.7346 19.8468C17.3455 18.6176 17.7201 17.2846 17.839 15.9172C17.1101 16.5136 16.3284 17.1101 15.494 17.7065C13.6831 18.9032 11.7637 19.9269 9.76115 20.7643L9.76513 20.7642ZM23.8611 2.9713C23.7289 7.29849 20.6135 11.5899 14.3359 16.0931C12.6276 17.2005 10.8254 18.1558 8.95001 18.9481V18.3884C8.94074 16.4708 7.38845 14.9184 5.47075 14.9092H4.91111C5.70521 13.0338 6.66219 11.2316 7.77108 9.5233C12.2632 3.26057 16.5477 0.141151 20.868 0C23.0211 0 23.8611 0.876777 23.8611 2.9713ZM17.8967 8.44764C17.8967 7.07513 16.784 5.96244 15.4115 5.96244C14.0389 5.96244 12.9263 7.07508 12.9263 8.44764C12.9263 9.82016 14.0389 10.9328 15.4115 10.9328C16.784 10.9328 17.8967 9.82016 17.8967 8.44764Z" fill="#0052CC"/>
</svg>
