<svg width="24" height="24" viewBox="0 0 24 24" fill="none" xmlns="http://www.w3.org/2000/svg">
<path d="M0.500352 13.6029C0.233033 13.2097 0.0667882 12.7565 0.0163313 12.2837C-0.0341256 11.8109 0.0327618 11.3329 0.211073 10.8921C1.02036 9.2411 2.37615 7.92115 4.04819 7.15635C5.25876 6.55437 6.57002 6.18096 7.91611 6.0549C7.3296 6.77663 6.74243 7.54666 6.1546 8.36515C4.95825 10.1768 3.9342 12.0964 3.09585 14.099L2.73499 14.9082C2.2887 14.8712 1.85634 14.7348 1.46965 14.509C1.08296 14.2831 0.751754 13.9735 0.500352 13.6029ZM1.87516 17.8019C1.01148 18.9944 0.391608 20.3457 0.0510548 21.7782C-0.161258 22.709 0.421185 23.6357 1.35204 23.848C1.60536 23.9058 1.86845 23.9058 2.12174 23.8478C3.55207 23.5068 4.90121 22.8873 6.0921 22.0247C7.2582 20.8592 7.25867 18.969 6.09308 17.8029C4.92754 16.6368 3.03733 16.6363 1.87123 17.8019H1.87516ZM9.76513 20.7642L8.95001 21.1261V21.4184C8.95098 21.765 9.02032 22.1081 9.15405 22.4279C9.28778 22.7478 9.48328 23.0381 9.72936 23.2823C10.2021 23.742 10.8354 23.9995 11.4949 24C13.8379 23.9662 15.7376 21.8329 16.7346 19.8468C17.3455 18.6176 17.7201 17.2846 17.839 15.9172C17.1101 16.5136 16.3284 17.1101 15.494 17.7065C13.6831 18.9032 11.7637 19.9269 9.76115 20.7643L9.76513 20.7642ZM23.8611 2.9713C23.7289 7.29849 20.6135 11.5899 14.3359 16.0931C12.6276 17.2005 10.8254 18.1558 8.95001 18.9481V18.3884C8.94074 16.4708 7.38845 14.9184 5.47075 14.9092H4.91111C5.70521 13.0338 6.66219 11.2316 7.77108 9.5233C12.2632 3.26057 16.5477 0.141151 20.868 0C23.0211 0 23.8611 0.876777 23.8611 2.9713ZM17.8967 8.44764C17.8967 7.07513 16.784 5.96244 15.4115 5.96244C14.0389 5.96244 12.9263 7.07508 12.9263 8.44764C12.9263 9.82016 14.0389 10.9328 15.4115 10.9328C16.784 10.9328 17.8967 9.82016 17.8967 8.44764Z" fill="#0052CC"/>
</svg>
