<?xml version="1.0" encoding="UTF-8"?>
    <svg xmlns="http://www.w3.org/2000/svg" viewBox="0 0 18 18">
        <path d="m4,0c2.21,0,4,1.79,4,4s-1.79,4-4,4S0,6.21,0,4,1.79,0,4,0Zm0,2c-1.1,0-2,.9-2,2s.9,2,2,2,2-.9,2-2-.9-2-2-2ZM14,0c2.21,0,4,1.79,4,4s-1.79,4-4,4-4-1.79-4-4S11.79,0,14,0Zm0,2c-1.1,0-2,.9-2,2s.9,2,2,2,2-.9,2-2-.9-2-2-2Zm-6,12c0-2.21-1.79-4-4-4S0,11.79,0,14s1.79,4,4,4,4-1.79,4-4Zm-6,0c0-1.1.9-2,2-2s2,.9,2,2-.9,2-2,2-2-.9-2-2Zm12-4c2.21,0,4,1.79,4,4s-1.79,4-4,4-4-1.79-4-4,1.79-4,4-4Zm0,2c-1.1,0-2,.9-2,2s.9,2,2,2,2-.9,2-2-.9-2-2-2Z" style="fill-rule:evenodd; stroke-width:0px;"/>
    </svg>